HIERARCHY
ROOT Hips
{
	OFFSET 0.000000 0.000000 0.000000
	CHANNELS 6 Xposition Yposition Zposition Yrotation Xrotation Zrotation
	JOINT Chest
	{
		OFFSET 0.000000 -0.009281 11.569106
		CHANNELS 3 Yrotation Xrotation Zrotation
		JOINT Chest2
		{
			OFFSET -0.000000 0.016865 9.269641
			CHANNELS 3 Yrotation Xrotation Zrotation
			JOINT Chest3
			{
				OFFSET -0.000000 0.000001 8.374491
				CHANNELS 3 Yrotation Xrotation Zrotation
				JOINT Chest4
				{
					OFFSET -0.000000 0.000001 8.374493
					CHANNELS 3 Yrotation Xrotation Zrotation
					JOINT Neck
					{
						OFFSET -0.000000 0.000002 12.152554
						CHANNELS 3 Yrotation Xrotation Zrotation
						JOINT Head
						{
							OFFSET -0.000000 0.040101 7.802319
							CHANNELS 3 Yrotation Xrotation Zrotation
							End Site
							{
								OFFSET -0.000000 0.020947 14.853096
							}
						}
					}
					JOINT RightCollar
					{
						OFFSET 2.894404 0.000001 6.791374
						CHANNELS 3 Yrotation Xrotation Zrotation
						JOINT RightShoulder
						{
							OFFSET 13.574684 0.000001 0.000000
							CHANNELS 3 Yrotation Xrotation Zrotation
							JOINT RightElbow
							{
								OFFSET 23.923903 0.000002 0.000000
								CHANNELS 3 Yrotation Xrotation Zrotation
								JOINT RightWrist
								{
									OFFSET 19.846718 0.012767 0.000000
									CHANNELS 3 Yrotation Xrotation Zrotation
									End Site
									{
										OFFSET 14.973145 0.000001 0.000000
									}
								}
							}
						}
					}
					JOINT LeftCollar
					{
						OFFSET -2.894404 0.000001 6.791374
						CHANNELS 3 Yrotation Xrotation Zrotation
						JOINT LeftShoulder
						{
							OFFSET -13.574684 -0.000001 0.000000
							CHANNELS 3 Yrotation Xrotation Zrotation
							JOINT LeftElbow
							{
								OFFSET -23.923903 -0.000002 0.000000
								CHANNELS 3 Yrotation Xrotation Zrotation
								JOINT LeftWrist
								{
									OFFSET -19.846718 0.012763 0.000000
									CHANNELS 3 Yrotation Xrotation Zrotation
									End Site
									{
										OFFSET -14.973145 -0.000001 0.000000
									}
								}
							}
						}
					}
				}
			}
		}
	}
	JOINT RightHip
	{
		OFFSET 9.469263 0.004643 0.045487
		CHANNELS 3 Yrotation Xrotation Zrotation
		JOINT RightKnee
		{
			OFFSET 0.000000 0.002661 -40.478676
			CHANNELS 3 Yrotation Xrotation Zrotation
			JOINT RightAnkle
			{
				OFFSET 0.000000 0.049106 -35.224068
				CHANNELS 3 Yrotation Xrotation Zrotation
				JOINT RightToe
				{
					OFFSET -0.000001 12.539529 -6.151390
					CHANNELS 3 Yrotation Xrotation Zrotation
					End Site
					{
						OFFSET -0.000001 5.044994 -1.291870
					}
				}
			}
		}
	}
	JOINT LeftHip
	{
		OFFSET -9.469263 0.004641 0.045487
		CHANNELS 3 Yrotation Xrotation Zrotation
		JOINT LeftKnee
		{
			OFFSET 0.000000 0.002661 -40.478676
			CHANNELS 3 Yrotation Xrotation Zrotation
			JOINT LeftAnkle
			{
				OFFSET 0.000000 0.049106 -35.224068
				CHANNELS 3 Yrotation Xrotation Zrotation
				JOINT LeftToe
				{
					OFFSET -0.000001 12.539529 -6.151390
					CHANNELS 3 Yrotation Xrotation Zrotation
					End Site
					{
						OFFSET -0.000001 5.044994 -1.291870
					}
				}
			}
		}
	}
}
MOTION
Frames: 12
Frame Time: 0.016667
11.538807 6.036505 82.994064 -6.035360 -2.337667 -106.974348 9.410784 -0.253445 -4.663331 4.179536 -0.203603 -2.077227 4.179538 -0.203602 -2.077230 3.134003 -0.166919 -1.556615 -6.383505 -16.925742 17.544693 -5.810804 4.398092 30.233050 6.762974 5.575949 -6.370047 64.504662 36.682081 17.594410 54.836170 33.552621 70.018352 3.823418 34.037701 18.107976 -6.903829 -0.039348 -10.903941 -74.112108 43.352652 -64.685409 -46.954924 39.112231 -61.195182 43.888521 49.674719 4.078274 -2.670644 -9.873682 2.793436 -0.150333 -3.481193 0.351676 2.096183 5.851175 -2.568185 0.001827 0.055608 -0.006245 -3.302628 -11.004257 1.669906 0.034237 -0.374703 3.615604 1.302484 4.531802 -0.427176 0.044514 -0.011755 0.007272 
11.538900 6.043092 82.995743 -6.007666 -2.318901 -106.913894 9.404388 -0.255847 -4.670244 4.177666 -0.205030 -2.081907 4.177666 -0.205031 -2.081900 3.132592 -0.168017 -1.560109 -6.328881 -16.885846 17.533120 -5.707391 4.461716 30.234160 6.724590 5.599976 -6.386432 64.814759 36.939675 17.974949 55.195490 33.586226 70.571304 5.905286 34.304492 19.308163 -6.898753 -0.001416 -10.914174 -74.114970 43.333155 -64.719225 -46.952991 39.112296 -61.200325 43.827883 49.584742 3.943366 -2.674790 -9.848831 2.799747 -0.142301 -3.481687 0.316723 2.086372 5.842756 -2.607162 0.007250 0.054526 -0.006891 -3.297535 -10.974999 1.664281 0.022473 -0.356729 3.582325 1.290108 4.505503 -0.448824 0.053143 -0.008251 0.007988 
11.538193 6.048241 82.997894 -5.978195 -2.300356 -106.859614 9.390115 -0.259714 -4.673264 4.172502 -0.206644 -2.084235 4.172499 -0.206645 -2.084235 3.128710 -0.169223 -1.561850 -6.260868 -16.842717 17.511493 -5.582122 4.529738 30.221712 6.691920 5.629316 -6.384932 65.079258 37.129274 18.391220 55.735590 33.868634 71.141912 7.529629 34.827336 20.491281 -6.886230 0.053027 -10.913070 -74.079508 43.289572 -64.735966 -46.892578 39.114970 -61.154092 43.643912 49.426712 3.745581 -2.678560 -9.824217 2.799232 -0.139186 -3.475174 0.286191 2.079320 5.831988 -2.633865 0.012599 0.051871 -0.006577 -3.294477 -10.944406 1.652740 0.016872 -0.338230 3.555475 1.274721 4.477281 -0.468268 0.059025 -0.004792 0.007752 
11.536223 6.050351 83.000160 -5.947880 -2.286211 -106.817868 9.374009 -0.260842 -4.674733 4.166416 -0.206915 -2.086194 4.166416 -0.206914 -2.086197 3.124145 -0.169420 -1.563322 -6.196135 -16.806114 17.487735 -5.464712 4.586665 30.203680 6.666461 5.652709 -6.373088 65.299860 37.284722 18.804394 56.196433 34.303467 71.553055 8.411904 35.611322 21.760554 -6.884498 0.115765 -10.899569 -74.023623 43.247542 -64.735194 -46.853045 39.094333 -61.130890 43.469161 49.200018 3.631875 -2.676400 -9.801305 2.789953 -0.139263 -3.461455 0.261711 2.072305 5.818490 -2.628232 0.016395 0.047892 -0.005943 -3.288376 -10.917069 1.650913 0.013183 -0.315344 3.539401 1.257642 4.449318 -0.495978 0.062193 -0.003504 0.007917 
11.533857 6.048708 83.002022 -5.919420 -2.275306 -106.793853 9.358675 -0.258513 -4.678156 4.160380 -0.205666 -2.088909 4.160380 -0.205665 -2.088908 3.119623 -0.168483 -1.565368 -6.144363 -16.779838 17.467101 -5.371876 4.626881 30.186011 6.653389 5.659026 -6.347781 65.482417 37.430301 19.242757 56.368790 34.867883 71.699378 8.496870 36.702503 22.851390 -6.887131 0.144757 -10.898704 -73.997819 43.258945 -64.762010 -46.889337 39.056637 -61.157077 43.233520 48.956884 3.490912 -2.668281 -9.779098 2.780836 -0.146066 -3.448778 0.242569 2.069534 5.808009 -2.630961 0.016491 0.042192 -0.006128 -3.283456 -10.896289 1.665276 0.014395 -0.288409 3.517791 1.240089 4.423960 -0.511961 0.061730 -0.004510 0.008556 
11.530753 6.042398 83.003250 -5.892744 -2.269334 -106.789400 9.344543 -0.256106 -4.682607 4.154965 -0.204623 -2.091781 4.154966 -0.204623 -2.091781 3.115562 -0.167700 -1.567527 -6.107512 -16.759749 17.451483 -5.305828 4.658154 30.171855 6.643103 5.709837 -6.344264 65.671702 37.528580 19.698957 56.355020 35.554550 71.578047 8.122639 37.837124 23.732256 -6.892154 0.172772 -10.891396 -73.997218 43.290251 -64.795088 -46.927894 39.001012 -61.183865 43.102062 48.887233 3.433713 -2.656587 -9.759536 2.775680 -0.156143 -3.431610 0.230951 2.071584 5.797374 -2.621348 0.012806 0.034932 -0.006502 -3.275979 -10.882894 1.679756 0.017211 -0.256863 3.508036 1.226945 4.402020 -0.521855 0.055122 -0.007980 0.008843 
11.524752 6.032409 83.004089 -5.868319 -2.267138 -106.808408 9.334504 -0.257839 -4.686124 4.151610 -0.205960 -2.093251 4.151608 -0.205960 -2.093254 3.113044 -0.168703 -1.568622 -6.087645 -16.744506 17.441158 -5.269976 4.683298 30.161094 6.636659 5.772378 -6.345262 65.884654 37.618005 20.158508 56.356854 36.325337 71.325685 7.799090 38.869165 24.432437 -6.904313 0.203173 -10.884026 -74.013979 43.331167 -64.843180 -46.969838 38.954836 -61.230918 43.070568 48.862945 3.393315 -2.644135 -9.739459 2.773851 -0.165820 -3.412603 0.233325 2.077496 5.789456 -2.594218 0.004172 0.023939 -0.007733 -3.265959 -10.873397 1.688802 0.018836 -0.225333 3.506294 1.214753 4.382457 -0.517505 0.047915 -0.011690 0.009528 
11.516115 6.019156 83.004738 -5.842213 -2.266100 -106.844868 9.325478 -0.259426 -4.688250 4.148888 -0.207131 -2.093555 4.148887 -0.207130 -2.093555 3.110996 -0.169573 -1.568842 -6.079904 -16.737360 17.434244 -5.256705 4.695618 30.151672 6.644894 5.791083 -6.318195 66.138252 37.747536 20.608255 56.400246 37.088603 71.023203 7.573507 39.737781 24.854427 -6.925953 0.247940 -10.881326 -74.006971 43.376090 -64.864148 -47.021946 38.954871 -61.305797 43.059947 48.782645 3.319431 -2.628336 -9.721349 2.774745 -0.177562 -3.380397 0.240865 2.087659 5.779624 -2.576009 -0.008451 0.009579 -0.008378 -3.258487 -10.858245 1.681261 0.026263 -0.202559 3.526715 1.204225 4.368896 -0.498631 0.037325 -0.015444 0.009670 
11.504701 6.002947 83.005287 -5.818172 -2.267765 -106.896251 9.321628 -0.258716 -4.690611 4.148263 -0.207365 -2.094196 4.148263 -0.207366 -2.094194 3.110525 -0.169751 -1.569320 -6.089339 -16.744043 17.431874 -5.275945 4.685504 30.143373 6.649835 5.851828 -6.310533 66.391460 37.822944 20.927257 56.428967 37.700124 70.689261 7.158671 40.481916 25.055451 -6.957875 0.278728 -10.874607 -74.029135 43.436745 -64.917164 -46.992050 38.979357 -61.302614 43.046796 48.721030 3.260625 -2.610943 -9.703577 2.775741 -0.190068 -3.346133 0.242794 2.101173 5.770483 -2.546488 -0.021411 -0.005403 -0.008586 -3.249092 -10.843388 1.671342 0.035233 -0.185393 3.546381 1.194928 4.360684 -0.466135 0.025391 -0.019917 0.009835 
11.490460 5.983403 83.005547 -5.797354 -2.268675 -106.959936 9.319396 -0.257607 -4.688651 4.147629 -0.207487 -2.092271 4.147628 -0.207488 -2.092270 3.110050 -0.169828 -1.567875 -6.111486 -16.762449 17.432506 -5.319629 4.656104 30.135122 6.669306 5.880729 -6.306566 66.609678 37.825444 21.102110 56.412896 38.090063 70.429550 6.406465 41.078831 24.877207 -6.984251 0.299421 -10.864662 -74.075362 43.505259 -64.986798 -46.932525 39.010192 -61.254844 43.114490 48.723192 3.306128 -2.591555 -9.689939 2.776519 -0.209996 -3.303607 0.243920 2.118965 5.760970 -2.496472 -0.033671 -0.022371 -0.008715 -3.239944 -10.830032 1.664919 0.041847 -0.169928 3.566658 1.187678 4.352446 -0.428916 0.013628 -0.022517 0.010137 
11.476001 5.961898 83.005241 -5.776862 -2.268033 -107.030266 9.319398 -0.257443 -4.681881 4.147818 -0.207384 -2.087612 4.147816 -0.207384 -2.087608 3.110198 -0.169721 -1.564377 -6.142877 -16.788632 17.433931 -5.381401 4.614184 30.124426 6.697157 5.860799 -6.297250 66.752682 37.684373 21.105875 56.422021 38.298647 70.352069 5.740510 41.239644 24.382995 -7.000488 0.321985 -10.854835 -74.095688 43.568226 -65.011387 -46.971928 39.065301 -61.266011 43.232051 48.781594 3.389932 -2.568207 -9.678280 2.768287 -0.241422 -3.256955 0.260512 2.142273 5.754568 -2.445084 -0.044953 -0.040106 -0.009612 -3.233260 -10.815016 1.663007 0.051332 -0.159411 3.595949 1.177350 4.349352 -0.396285 0.003587 -0.025309 0.010688 
11.461553 5.937744 83.004883 -5.758514 -2.264767 -107.099559 9.319797 -0.256956 -4.668669 4.147412 -0.206906 -2.080047 4.147413 -0.206905 -2.080044 3.109896 -0.169308 -1.558709 -6.176745 -16.818492 17.433336 -5.449008 4.566247 30.108843 6.710801 5.841574 -6.326322 66.900740 37.419099 20.978547 56.464262 38.308287 70.395905 5.629112 40.935120 24.000037 -7.009743 0.343536 -10.854567 -74.100620 43.618756 -65.004160 -47.054611 39.126797 -61.309178 43.393582 48.845207 3.481763 -2.548012 -9.675443 2.754795 -0.268746 -3.196607 0.280741 2.160872 5.745468 -2.396465 -0.053794 -0.057515 -0.009501 -3.227927 -10.802726 1.675971 0.061195 -0.146512 3.618353 1.165788 4.344705 -0.375737 -0.005451 -0.026651 0.010861 
